HIERARCHY
ROOT joint_Root
{
	OFFSET 0.0 0.0 0.0
	CHANNELS 6 Xposition Yposition Zposition Zrotation Xrotation Yrotation 
	JOINT Hips
	{
		OFFSET -0.726466 93.3139 -2.00062
		CHANNELS 6 Xposition Yposition Zposition Zrotation Xrotation Yrotation 
		JOINT Spine
		{
			OFFSET 15.7357 0.0 0.0
			CHANNELS 6 Xposition Yposition Zposition Zrotation Xrotation Yrotation 
			JOINT Chest
			{
				OFFSET 8.98455 -0.406207 0.0
				CHANNELS 6 Xposition Yposition Zposition Zrotation Xrotation Yrotation 
				JOINT Neck
				{
					OFFSET 16.3773 0.0 0.0
					CHANNELS 6 Xposition Yposition Zposition Zrotation Xrotation Yrotation 
					JOINT Head
					{
						OFFSET 6.45672 0.0 0.0
						CHANNELS 6 Xposition Yposition Zposition Zrotation Xrotation Yrotation 
						End Site
						{
							OFFSET 0.0 0.0 0.0
						}
					}
				}
				JOINT Shoulder_L
				{
					OFFSET 12.9942 -0.242716 4.98039
					CHANNELS 6 Xposition Yposition Zposition Zrotation Xrotation Yrotation 
					JOINT UpperArm_L
					{
						OFFSET 5.34809 0.0 0.0
						CHANNELS 6 Xposition Yposition Zposition Zrotation Xrotation Yrotation 
						JOINT LowerArm_L
						{
							OFFSET 24.3286 1.87007e-05 0.0
							CHANNELS 6 Xposition Yposition Zposition Zrotation Xrotation Yrotation 
							JOINT Hand_L
							{
								OFFSET 22.2916 0.0 0.0
								CHANNELS 6 Xposition Yposition Zposition Zrotation Xrotation Yrotation 
								End Site
								{
									OFFSET 0.0 0.0 0.0
								}
							}
						}
					}
				}
				JOINT Shoulder_R
				{
					OFFSET 12.9945 -0.242716 -4.98039
					CHANNELS 6 Xposition Yposition Zposition Zrotation Xrotation Yrotation 
					JOINT UpperArm_R
					{
						OFFSET -5.34813 0.0 0.0
						CHANNELS 6 Xposition Yposition Zposition Zrotation Xrotation Yrotation 
						JOINT LowerArm_R
						{
							OFFSET -24.3289 0.000322201 0.0
							CHANNELS 6 Xposition Yposition Zposition Zrotation Xrotation Yrotation 
							JOINT Hand_R
							{
								OFFSET -22.2915 -0.000108084 0.0
								CHANNELS 6 Xposition Yposition Zposition Zrotation Xrotation Yrotation 
								End Site
								{
									OFFSET 0.0 0.0 0.0
								}
							}
						}
					}
				}
			}
		}
		JOINT UpperLeg_L
		{
			OFFSET -2.19248 -6.46944 0.0
			CHANNELS 6 Xposition Yposition Zposition Zrotation Xrotation Yrotation 
			JOINT LowerLeg_L
			{
				OFFSET 39.0811 0.0 -1.23785e-05
				CHANNELS 6 Xposition Yposition Zposition Zrotation Xrotation Yrotation 
				JOINT Foot_L
				{
					OFFSET 40.9854 0.0 -1.26872e-05
					CHANNELS 6 Xposition Yposition Zposition Zrotation Xrotation Yrotation 
					JOINT Toes_L
					{
						OFFSET 11.7543 0.0 0.0
						CHANNELS 6 Xposition Yposition Zposition Zrotation Xrotation Yrotation 
						End Site
						{
							OFFSET 0.0 0.0 0.0
						}
					}
				}
			}
		}
		JOINT UpperLeg_R
		{
			OFFSET -2.19251 6.46944 0.0
			CHANNELS 6 Xposition Yposition Zposition Zrotation Xrotation Yrotation 
			JOINT LowerLeg_R
			{
				OFFSET -39.0811 -0.00228153 -0.0401928
				CHANNELS 6 Xposition Yposition Zposition Zrotation Xrotation Yrotation 
				JOINT Foot_R
				{
					OFFSET -40.9854 0.0 0.0
					CHANNELS 6 Xposition Yposition Zposition Zrotation Xrotation Yrotation 
					JOINT Toes_R
					{
						OFFSET -11.7543 0.0 0.0
						CHANNELS 6 Xposition Yposition Zposition Zrotation Xrotation Yrotation 
						End Site
						{
							OFFSET 0.0 0.0 0.0
						}
					}
				}
			}
		}
	}
}
MOTION
Frames:	5
Frame Time:	0.0333333
0.000000 0.000000 0.000000 0.000000 0.000000 -0.000000 -0.231823 93.299900 15.551100 -89.401900 -13.759000 171.150000 15.735700 0.000005 -0.000001 50.986600 79.829700 -48.752500 8.984550 -0.406207 -0.000000 8.449430 -12.733600 5.422850 16.377300 -0.000001 -0.000001 4.607620 -3.663490 -1.872350 6.456720 -0.000001 -0.000000 -0.438809 1.942890 0.238115 12.994200 -0.242716 4.980390 -86.700900 -10.361800 -72.230000 5.348090 -0.000007 -0.000001 -63.438800 18.259300 -26.547800 24.328600 0.000019 0.000005 -6.829800 -1.441920 -78.134900 22.291600 -0.000001 0.000005 -3.613570 5.547850 -8.605160 12.994500 -0.242716 -4.980390 92.080200 -3.966900 -62.298900 -5.348130 -0.000001 -0.000004 -70.507200 22.184300 16.975500 -24.328900 0.000322 -0.000009 -4.221320 -3.283910 -52.174600 -22.291500 -0.000108 -0.000004 -4.896690 5.519250 -7.329760 -2.192480 -6.469440 -0.000000 -168.516000 -10.221400 7.942640 39.081100 -0.000007 -0.000012 0.078023 -0.138230 29.442000 40.985400 -0.000006 -0.000013 0.064980 -2.702600 -39.246000 11.754300 -0.000000 0.000003 -0.006951 -0.079250 -19.803000 -2.192510 6.469440 -0.000001 -172.581000 16.764200 147.068000 -39.081100 -0.002282 -0.040193 -0.018146 0.086246 13.984300 -40.985400 0.000008 0.000006 -7.063350 5.734760 -67.260400 -11.754300 -0.000006 -0.000006 -0.028520 -0.210600 -25.197400
0.000000 0.000000 0.000000 0.000000 0.000000 -0.000000 -0.169466 91.401200 6.583610 -90.815900 -14.167200 171.334000 15.735700 0.000005 -0.000001 50.592600 79.890000 -48.619700 8.984550 -0.406207 -0.000000 8.235600 -12.772800 4.877940 16.377300 -0.000001 -0.000001 4.877550 -4.039850 -1.845280 6.456720 -0.000001 -0.000000 -0.473640 1.994950 -0.140371 12.994200 -0.242716 4.980390 -86.835900 -10.053100 -72.428100 5.348090 -0.000007 -0.000001 -63.817800 19.493400 -24.626600 24.328600 0.000019 0.000005 -6.387490 -1.466250 -77.124100 22.291600 -0.000001 0.000005 -3.459200 5.550240 -8.717580 12.994500 -0.242716 -4.980390 91.771300 -3.289560 -61.677600 -5.348130 -0.000001 -0.000004 -68.819100 22.517100 17.061000 -24.328900 0.000322 -0.000009 -5.067810 -3.793190 -53.270500 -22.291500 -0.000108 -0.000004 -5.314850 5.518880 -7.314120 -2.192480 -6.469440 -0.000000 -168.809000 -6.653180 9.582850 39.081100 -0.000007 -0.000012 0.086085 -0.120428 35.557700 40.985400 -0.000006 -0.000013 1.779140 -11.061600 -41.659200 11.754300 -0.000000 0.000003 -0.006905 -0.078853 -19.786800 -2.192510 6.469440 -0.000001 -170.531000 20.830800 145.399000 -39.081100 -0.002282 -0.040193 -0.012396 0.062640 14.094400 -40.985400 0.000008 0.000006 -6.189840 0.451148 -70.044100 -11.754300 -0.000006 -0.000006 -0.027455 -0.205554 -24.988300
0.000000 0.000000 0.000000 0.000000 0.000000 -0.000000 0.111681 88.912100 -2.343890 -89.216000 -13.463900 172.228000 15.735700 0.000005 -0.000001 54.080700 80.145200 -51.504100 8.984550 -0.406207 -0.000000 8.590750 -11.490500 6.027920 16.377300 -0.000001 -0.000001 5.648340 -4.100280 -2.288960 6.456720 -0.000001 -0.000000 -1.547130 1.968160 0.088250 12.994200 -0.242716 4.980390 -87.340600 -8.692110 -72.915400 5.348090 -0.000007 -0.000001 -63.812000 20.563000 -21.274400 24.328600 0.000019 0.000005 -5.658410 -1.510890 -75.097200 22.291600 -0.000001 0.000005 -2.953910 5.554210 -8.905670 12.994500 -0.242716 -4.980390 90.911800 -1.737370 -62.307700 -5.348130 -0.000001 -0.000004 -65.727100 22.322200 15.324500 -24.328900 0.000322 -0.000009 -5.789650 -4.326860 -53.341600 -22.291500 -0.000108 -0.000004 -5.467850 5.521230 -7.413900 -2.192480 -6.469440 -0.000000 -167.742000 -3.499850 10.236700 39.081100 -0.000007 -0.000012 0.116967 -0.120105 44.241000 40.985400 -0.000006 -0.000013 7.234300 -12.361300 -41.330000 11.754300 -0.000000 0.000003 -0.006643 -0.076582 -19.694100 -2.192510 6.469440 -0.000001 -165.788000 20.919400 140.054000 -39.081100 -0.002282 -0.040193 0.195970 -0.394724 26.016700 -40.985400 0.000008 0.000006 9.803110 -5.034920 -64.423900 -11.754300 -0.000006 -0.000006 -0.046618 -0.285487 -28.321100
0.000000 0.000000 0.000000 0.000000 0.000000 -0.000000 0.348219 85.645600 -11.349300 -87.480600 -12.510400 173.547000 15.735700 0.000005 -0.000001 59.664200 80.264700 -56.414800 8.984550 -0.406207 -0.000000 9.426150 -9.733080 7.310520 16.377300 -0.000001 -0.000001 4.337420 -3.871700 -2.555700 6.456720 -0.000001 -0.000000 -1.940270 1.707980 -0.501034 12.994200 -0.242716 4.980390 -87.907700 -6.735070 -72.695700 5.348090 -0.000007 -0.000001 -62.629300 22.718000 -18.135500 24.328600 0.000019 0.000005 -4.893330 -1.634610 -71.569000 22.291600 -0.000001 0.000005 -2.602220 5.567790 -9.575560 12.994500 -0.242716 -4.980390 89.870700 0.253259 -62.915500 -5.348130 -0.000001 -0.000004 -61.216800 22.576100 11.656500 -24.328900 0.000322 -0.000009 -6.728820 -4.960870 -53.755100 -22.291500 -0.000108 -0.000004 -5.076740 5.525880 -7.613980 -2.192480 -6.469440 -0.000000 -166.419000 -1.508370 7.755750 39.081100 -0.000007 -0.000012 0.117071 -0.071433 58.607900 40.985400 -0.000006 -0.000013 4.215540 -10.415200 -41.936100 11.754300 -0.000000 0.000003 -0.005990 -0.070749 -19.456200 -2.192510 6.469440 -0.000001 -167.055000 16.014300 136.339000 -39.081100 -0.002282 -0.040193 -0.007692 0.011098 44.635200 -40.985400 0.000008 0.000006 7.275920 -9.236670 -61.885400 -11.754300 -0.000006 -0.000006 -0.031388 -0.223755 -25.743200
0.000000 0.000000 0.000000 0.000000 0.000000 -0.000000 0.460128 82.761600 -19.864700 -83.386800 -8.741110 177.444000 15.735700 0.000005 -0.000001 71.905900 79.292300 -67.483000 8.984550 -0.406207 -0.000000 12.913800 -6.387640 9.577250 16.377300 -0.000001 -0.000001 2.070410 -2.573940 -1.952770 6.456720 -0.000001 -0.000000 -2.739300 2.015850 -2.277010 12.994200 -0.242716 4.980390 -88.477600 -4.658600 -71.878000 5.348090 -0.000007 -0.000001 -62.946100 23.720600 -14.196900 24.328600 0.000019 0.000005 -5.533790 -2.558330 -65.287700 22.291600 -0.000001 0.000005 -2.757930 5.579040 -10.162900 12.994500 -0.242716 -4.980390 88.985300 2.110740 -64.312500 -5.348130 -0.000001 -0.000004 -55.525000 23.298700 2.620190 -24.328900 0.000322 -0.000009 -7.933610 -6.089610 -52.717200 -22.291500 -0.000108 -0.000004 -3.585980 5.532680 -7.910670 -2.192480 -6.469440 -0.000000 -163.782000 -2.238360 5.123090 39.081100 -0.000007 -0.000012 0.109697 -0.029172 75.104700 40.985400 -0.000006 -0.000013 4.384370 -7.064970 -42.060500 11.754300 -0.000000 0.000003 -0.005556 -0.066754 -19.293200 -2.192510 6.469440 -0.000001 -163.666000 13.107500 139.973000 -39.081100 -0.002282 -0.040193 0.226516 -0.146643 56.706500 -40.985400 0.000008 0.000006 12.130000 -11.367400 -71.341900 -11.754300 -0.000006 -0.000006 -0.007683 -0.085424 -20.051300
